<svg width="100" height="100" viewBox="0 0 100 100" fill="none" xmlns="http://www.w3.org/2000/svg">
<rect width="100" height="100" fill="#F5F5F5"/>
<g clip-path="url(#clip0_0_1)">
<path d="M63.417 60.993L68.779 55.63C69.366 55.044 69.366 54.096 68.779 53.509C68.193 52.923 67.245 52.923 66.659 53.509L61.296 58.871L55.934 53.509C55.348 52.923 54.399 52.923 53.813 53.509C53.227 54.096 53.227 55.044 53.813 55.63L59.175 60.992L53.811 66.355C53.225 66.941 53.225 67.89 53.811 68.476C54.104 68.767 54.489 68.914 54.874 68.914C55.258 68.914 55.644 68.769 55.937 68.476L61.298 63.114L66.66 68.476C66.953 68.767 67.337 68.914 67.722 68.914C68.105 68.914 68.49 68.769 68.783 68.476C69.369 67.89 69.369 66.941 68.783 66.355L63.417 60.993Z" fill="black"/>
<path d="M38.702 50.973C33.176 50.973 28.681 55.467 28.681 60.994C28.681 66.518 33.177 71.015 38.702 71.015C44.228 71.015 48.723 66.519 48.723 60.994C48.723 55.467 44.228 50.973 38.702 50.973ZM38.702 68.016C34.83 68.016 31.681 64.868 31.681 60.995C31.681 57.122 34.831 53.974 38.702 53.974C42.573 53.974 45.723 57.122 45.723 60.995C45.723 64.868 42.574 68.016 38.702 68.016Z" fill="black"/>
<path d="M31.218 46.492C31.511 46.785 31.895 46.931 32.279 46.931C32.663 46.931 33.047 46.784 33.34 46.491L38.702 41.129L44.065 46.492C44.358 46.785 44.742 46.931 45.126 46.931C45.51 46.931 45.894 46.784 46.187 46.491C46.773 45.905 46.773 44.955 46.187 44.37L40.823 39.008L46.185 33.646C46.771 33.061 46.771 32.11 46.185 31.525C45.599 30.939 44.65 30.939 44.064 31.525L38.702 36.887L33.339 31.525C32.753 30.939 31.803 30.939 31.218 31.525C30.632 32.111 30.632 33.061 31.218 33.646L36.581 39.008L31.218 44.371C30.632 44.956 30.632 45.907 31.218 46.492Z" fill="black"/>
<path d="M61.298 28.986C55.772 28.986 51.277 33.481 51.277 39.007C51.277 44.533 55.773 49.028 61.298 49.028C66.823 49.028 71.319 44.533 71.319 39.007C71.318 33.481 66.825 28.986 61.298 28.986ZM61.298 46.029C57.425 46.029 54.277 42.88 54.277 39.008C54.277 35.136 57.427 31.987 61.298 31.987C65.169 31.987 68.319 35.136 68.319 39.008C68.319 42.88 65.171 46.029 61.298 46.029Z" fill="black"/>
<path d="M50 0C22.386 0 0 22.386 0 50C0 77.614 22.386 100 50 100C77.614 100 100 77.614 100 50C100 22.386 77.614 0 50 0ZM82.002 74.781C82.002 78.761 78.764 82 74.783 82H74.781H25.22H25.218C21.238 82 18 78.762 18 74.781V25.219C18 21.239 21.238 18 25.218 18H25.22H74.781H74.783C78.763 18 82.002 21.238 82.002 25.218V74.781Z" fill="black"/>
</g>
<defs>
<clipPath id="clip0_0_1">
<rect width="100" height="100" fill="white"/>
</clipPath>
</defs>
</svg>
