<svg width="180" height="180" viewBox="0 0 29 29" fill="none" xmlns="http://www.w3.org/2000/svg">
<g clip-path="url(#clip0_1_10)">
<path d="M23.5 11C26.538 11 29 8.538 29 5.5C29 2.462 26.538 0 23.5 0C20.462 0 18 2.462 18 5.5C18 8.538 20.462 11 23.5 11ZM23.5 3C24.879 3 26 4.121 26 5.5C26 6.879 24.879 8 23.5 8C22.121 8 21 6.879 21 5.5C21 4.121 22.121 3 23.5 3Z" fill="#00ff40"/>
<path d="M5.5 18C2.462 18 0 20.462 0 23.5C0 26.538 2.462 29 5.5 29C8.538 29 11 26.538 11 23.5C11 20.462 8.538 18 5.5 18ZM5.5 26C4.121 26 3 24.879 3 23.5C3 22.121 4.121 21 5.5 21C6.879 21 8 22.121 8 23.5C8 24.879 6.879 26 5.5 26Z" fill="#00ff40"/>
<path d="M16 0H13V13H0V16H13V29H16V16H29V13H16V0Z" fill="#7700ff"/>
<path d="M2.67199 10.449L5.49999 7.621L8.32799 10.449L10.449 8.328L7.62099 5.5L10.449 2.672L8.32799 0.550999L5.49999 3.379L2.67199 0.550999L0.550995 2.672L3.37899 5.5L0.550995 8.328L2.67199 10.449Z" fill="#00ff40"/>
<path d="M26.328 18.551L23.5 21.379L20.672 18.551L18.551 20.672L21.379 23.5L18.551 26.328L20.672 28.449L23.5 25.621L26.328 28.449L28.449 26.328L25.621 23.5L28.449 20.672L26.328 18.551Z" fill="#00ff40"/>
</g>
<defs>
<clipPath id="clip0_1_10">
<rect width="29" height="29" fill="white"/>
</clipPath>
</defs>
</svg>
